<svg xmlns="http://www.w3.org/2000/svg" viewBox="0 0 64 64" fill="none">
  <!-- Dome fill -->
  <path d="M8 32 A24 24 0 0 1 56 32 Z" fill="#2b7fff"/>
  <!-- Left sheen panel -->
  <path d="M8 32 A24 24 0 0 1 20 13 L24 32 Z" fill="#5a9fff" opacity="0.5"/>
  <!-- Segment lines -->
  <line x1="32" y1="8" x2="32" y2="32" stroke="#93c5ff" stroke-width="1" opacity="0.7"/>
  <line x1="20" y1="13" x2="24" y2="32" stroke="#93c5ff" stroke-width="1" opacity="0.7"/>
  <line x1="44" y1="13" x2="40" y2="32" stroke="#93c5ff" stroke-width="1" opacity="0.7"/>
  <!-- Strings -->
  <line x1="10" y1="32" x2="26" y2="46" stroke="#5a9fff" stroke-width="1.4"/>
  <line x1="24" y1="32" x2="27" y2="46" stroke="#5a9fff" stroke-width="1.4"/>
  <line x1="32" y1="32" x2="32" y2="46" stroke="#5a9fff" stroke-width="1.4"/>
  <line x1="40" y1="32" x2="37" y2="46" stroke="#5a9fff" stroke-width="1.4"/>
  <line x1="54" y1="32" x2="38" y2="46" stroke="#5a9fff" stroke-width="1.4"/>
  <!-- Crate body -->
  <rect x="24" y="46" width="16" height="12" rx="2" fill="#e8d5b7"/>
  <!-- Crate top sheen -->
  <rect x="24" y="46" width="16" height="4" rx="2" fill="#f5e6cc"/>
  <!-- Crate planks -->
  <line x1="32" y1="46" x2="32" y2="58" stroke="#b89a6a" stroke-width="1.2"/>
  <line x1="24" y1="52" x2="40" y2="52" stroke="#b89a6a" stroke-width="1.2"/>
</svg>
