<svg xmlns="http://www.w3.org/2000/svg" width="44" height="44" viewBox="0 0 44 44" fill="none">
  <path d="M29.7812 27.8344L26.6656 24.7188C26.525 24.5781 26.3344 24.5 26.1344 24.5H25.625C26.4875 23.3969 27 22.0094 27 20.5C27 16.9094 24.0906 14 20.5 14C16.9094 14 14 16.9094 14 20.5C14 24.0906 16.9094 27 20.5 27C22.0094 27 23.3969 26.4875 24.5 25.625V26.1344C24.5 26.3344 24.5781 26.525 24.7188 26.6656L27.8344 29.7812C28.1281 30.075 28.6031 30.075 28.8938 29.7812L29.7781 28.8969C30.0719 28.6031 30.0719 28.1281 29.7812 27.8344ZM20.5 24.5C18.2906 24.5 16.5 22.7125 16.5 20.5C16.5 18.2906 18.2875 16.5 20.5 16.5C22.7094 16.5 24.5 18.2875 24.5 20.5C24.5 22.7094 22.7125 24.5 20.5 24.5Z" fill="#3E374E"/>
</svg>
