<svg xmlns="http://www.w3.org/2000/svg" width="44" height="44" viewBox="0 0 44 44" fill="none">
  <path d="M11.514 11.574H23.619C24.452 11.574 25.125 12.255 25.125 13.087V23.227C25.125 23.477 24.922 23.68 24.671 23.68H21.536C21.336 23.68 21.159 23.812 21.101 24.004L20.508 25.979C20.4853 26.054 20.4435 26.1219 20.3868 26.176C20.3301 26.2301 20.2603 26.2686 20.1843 26.2877C20.1083 26.3068 20.0286 26.306 19.953 26.2852C19.8774 26.2644 19.8085 26.2243 19.753 26.169L17.397 23.813C17.355 23.7707 17.305 23.7371 17.2499 23.7143C17.1947 23.6914 17.1357 23.6798 17.076 23.68H11.514C10.68 23.68 10 23 10 22.167V13.087C10 12.255 10.681 11.574 11.514 11.574ZM13.027 20.2C13.027 20.45 13.23 20.654 13.481 20.654H21.652C21.902 20.654 22.106 20.45 22.106 20.2V19.594C22.106 19.5344 22.0943 19.4753 22.0714 19.4203C22.0486 19.3652 22.0152 19.3151 21.973 19.273C21.9309 19.2308 21.8808 19.1974 21.8257 19.1746C21.7707 19.1517 21.7116 19.14 21.652 19.14H13.481C13.3606 19.14 13.2451 19.1878 13.16 19.273C13.0748 19.3581 13.027 19.4736 13.027 19.594V20.2ZM13.027 17.93C13.027 18.18 13.23 18.384 13.481 18.384H21.652C21.902 18.384 22.106 18.18 22.106 17.93V17.324C22.1057 17.2038 22.0578 17.0886 21.9727 17.0036C21.8876 16.9187 21.7722 16.871 21.652 16.871H13.481C13.3608 16.871 13.2454 16.9187 13.1603 17.0036C13.0752 17.0886 13.0273 17.2038 13.027 17.324V17.93ZM13.027 15.66C13.027 15.91 13.23 16.114 13.481 16.114H21.652C21.902 16.114 22.106 15.911 22.106 15.66V15.055C22.106 14.9954 22.0943 14.9363 22.0714 14.8813C22.0486 14.8262 22.0152 14.7761 21.973 14.734C21.9309 14.6918 21.8808 14.6584 21.8257 14.6356C21.7707 14.6127 21.7116 14.601 21.652 14.601H13.481C13.3606 14.601 13.2451 14.6488 13.16 14.734C13.0748 14.8191 13.027 14.9346 13.027 15.055V15.66Z" fill="#3E374E"/>
  <path d="M27.098 25.581C25.4351 25.581 23.8403 26.2416 22.6644 27.4174C21.4886 28.5933 20.828 30.1881 20.828 31.851V32.221H33.368V31.851C33.368 30.1881 32.7074 28.5933 31.5316 27.4174C30.3557 26.2416 28.7609 25.581 27.098 25.581ZM27.098 25.581C26.4683 25.5811 25.8447 25.4572 25.2629 25.2163C24.6811 24.9753 24.1524 24.6222 23.7071 24.1769C23.2619 23.7316 22.9087 23.2029 22.6677 22.6211C22.4268 22.0393 22.3029 21.4157 22.303 20.786C22.3029 20.1563 22.4268 19.5327 22.6677 18.9509C22.9087 18.3691 23.2619 17.8404 23.7071 17.3951C24.1524 16.9498 24.6811 16.5967 25.2629 16.3557C25.8447 16.1148 26.4683 15.9909 27.098 15.991C27.7277 15.9909 28.3513 16.1148 28.9331 16.3557C29.5149 16.5967 30.0436 16.9498 30.4889 17.3951C30.9342 17.8404 31.2873 18.3691 31.5283 18.9509C31.7692 19.5327 31.8931 20.1563 31.893 20.786C31.8931 21.4157 31.7692 22.0393 31.5283 22.6211C31.2873 23.2029 30.9342 23.7316 30.4889 24.1769C30.0436 24.6222 29.5149 24.9753 28.9331 25.2163C28.3513 25.4572 27.7277 25.5811 27.098 25.581Z" fill="#3E374E" stroke="#1D1B26" stroke-width="0.738"/>
</svg>
