<svg width="48" height="10" viewBox="0 0 48 10" fill="none" xmlns="http://www.w3.org/2000/svg">
<path d="M3.81604 8.03056L6.46068 0.772882H7.61998L4.44399 9.18985H3.17601L2.31156e-05 0.772882H1.17139L3.81604 8.03056ZM9.30797 9.18985V2.57221H10.4069V9.18985H9.30797ZM9.87554 1.49744C9.45288 1.49744 9.12683 1.17139 9.12683 0.74873C9.12683 0.326071 9.45288 1.87144e-05 9.87554 1.87144e-05C10.2741 1.87144e-05 10.6001 0.326071 10.6001 0.74873C10.6001 1.17139 10.2741 1.49744 9.87554 1.49744ZM15.5765 3.39337C14.5018 3.39337 13.6082 4.10586 13.4874 5.39799H17.6657C17.6778 4.10586 16.7117 3.39337 15.5765 3.39337ZM18.668 7.14901C18.3299 8.35661 17.2672 9.29853 15.6248 9.29853C13.741 9.29853 12.3523 7.97018 12.3523 5.86895C12.3523 3.77981 13.6927 2.46352 15.6248 2.46352C17.5449 2.46352 18.8008 3.81603 18.8008 5.62743C18.8008 5.86895 18.7888 6.06217 18.7646 6.29161H13.4753C13.5599 7.63205 14.5018 8.36868 15.6248 8.36868C16.6151 8.36868 17.243 7.86149 17.4846 7.14901H18.668ZM22.0265 9.18985L19.9495 2.57221H21.0725L22.5941 8.12716L24.2364 2.57221H25.3595L26.9656 8.13924L28.463 2.57221H29.5499L27.4849 9.18985H26.3497L24.7557 3.93679L23.1617 9.18985H22.0265ZM40.4776 9.18985L39.8014 7.31807H36.1303L35.454 9.18985H34.2947L37.3379 0.821187H38.6058L41.6369 9.18985H40.4776ZM39.4874 6.42445L37.9658 2.1737L36.4442 6.42445H39.4874ZM43.4462 9.18985V0.253615H44.5452V9.18985H43.4462ZM46.9011 9.18985V0.253615H48V9.18985H46.9011Z" fill="#EAE6F5"/>
</svg>
