<svg width="50" height="34" viewBox="0 0 50 34" fill="none" xmlns="http://www.w3.org/2000/svg">
<rect width="50" height="34" rx="6" fill="#332E42"/>
<path d="M11.8094 17L15.7812 13.0313C16.075 12.7375 16.075 12.2625 15.7812 11.9719C15.4875 11.6781 15.0125 11.6813 14.7187 11.9719L10.2187 16.4688C9.93436 16.7531 9.92811 17.2094 10.1969 17.5031L14.7156 22.0313C14.8625 22.1781 15.0562 22.25 15.2469 22.25C15.4375 22.25 15.6312 22.1781 15.7781 22.0313C16.0719 21.7375 16.0719 21.2625 15.7781 20.9719L11.8094 17Z" fill="#837B99" fill-opacity="0.31"/>
<path d="M38.1906 17L34.2187 13.0312C33.925 12.7375 33.925 12.2625 34.2187 11.9719C34.5125 11.6813 34.9875 11.6813 35.2812 11.9719L39.7812 16.4688C40.0656 16.7531 40.0719 17.2094 39.8031 17.5031L35.2844 22.0312C35.1375 22.1781 34.9437 22.25 34.7531 22.25C34.5625 22.25 34.3687 22.1781 34.2219 22.0312C33.9281 21.7375 33.9281 21.2625 34.2219 20.9719L38.1906 17Z" fill="#837B99"/>
</svg>
