<svg width="179" height="15" viewBox="0 0 179 15" fill="none" xmlns="http://www.w3.org/2000/svg">
<path d="M9.82571e-06 14.8088V0.760439H9.14545V3.50207H3.42204V6.46383H7.70459V9.12541H3.42204V14.8088H9.82571e-06ZM16.6674 6.22369C15.5468 6.22369 14.6862 6.90409 14.4861 8.14483H18.7687C18.7687 6.9241 17.8081 6.22369 16.6674 6.22369ZM22.0106 11.1066C21.4703 13.2879 19.4891 14.9689 16.7074 14.9689C13.4255 14.9689 11.0641 12.7676 11.0641 9.22547C11.0641 5.68337 13.3855 3.48206 16.7074 3.48206C19.9694 3.48206 22.2707 5.64334 22.2707 9.04536C22.2707 9.36556 22.2507 9.70576 22.2107 10.046H14.4661C14.5862 11.5068 15.4867 12.1872 16.5874 12.1872C17.5479 12.1872 18.0883 11.7069 18.3684 11.1066H22.0106ZM24.1961 9.20546C24.1961 5.68337 26.3774 3.48206 29.119 3.48206C30.78 3.48206 31.9607 4.24251 32.5611 5.22309V3.64215H35.9831V14.8088H32.5611V13.2279C31.9407 14.2084 30.76 14.9689 29.099 14.9689C26.3774 14.9689 24.1961 12.7276 24.1961 9.20546ZM32.5611 9.22547C32.5611 7.44441 31.4204 6.46383 30.1196 6.46383C28.8389 6.46383 27.6782 7.4244 27.6782 9.20546C27.6782 10.9865 28.8389 11.9871 30.1196 11.9871C31.4204 11.9871 32.5611 11.0065 32.5611 9.22547ZM39.7996 10.9265V6.48384H38.4388V3.64215H39.7996V0.920535H43.2216V3.64215H45.463V6.48384H43.2216V10.9665C43.2216 11.6269 43.5018 11.9071 44.2623 11.9071H45.483V14.8088H43.742C41.4206 14.8088 39.7996 13.8282 39.7996 10.9265ZM59.2162 3.64215V14.8088H55.7941V13.2879C55.1137 14.2485 53.913 14.9289 52.4121 14.9289C49.8306 14.9289 48.0895 13.1478 48.0895 10.166V3.64215H51.4916V9.70576C51.4916 11.2267 52.3521 12.0672 53.6328 12.0672C54.9536 12.0672 55.7941 11.2267 55.7941 9.70576V3.64215H59.2162ZM65.8967 9.62571V14.8088H62.4747V3.64215H65.8967V5.50326C66.6771 4.32256 67.8979 3.52208 69.3988 3.52208V7.14423H68.4582C66.8372 7.14423 65.8967 7.70457 65.8967 9.62571ZM76.7578 6.22369C75.6372 6.22369 74.7767 6.90409 74.5765 8.14483H78.8591C78.8591 6.9241 77.8985 6.22369 76.7578 6.22369ZM82.101 11.1066C81.5607 13.2879 79.5795 14.9689 76.7979 14.9689C73.5159 14.9689 71.1545 12.7676 71.1545 9.22547C71.1545 5.68337 73.4759 3.48206 76.7979 3.48206C80.0598 3.48206 82.3612 5.64334 82.3612 9.04536C82.3612 9.36556 82.3412 9.70576 82.3011 10.046H74.5565C74.6766 11.5068 75.5771 12.1872 76.6778 12.1872C77.6384 12.1872 78.1787 11.7069 78.4588 11.1066H82.101ZM84.2865 9.20546C84.2865 5.68337 86.4678 3.48206 89.2094 3.48206C90.6903 3.48206 91.9711 4.16246 92.6515 5.18307V-1.24051e-05H96.0735V14.8088H92.6515V13.2078C92.0311 14.2284 90.8504 14.9689 89.2094 14.9689C86.4678 14.9689 84.2865 12.7276 84.2865 9.20546ZM92.6515 9.22547C92.6515 7.44441 91.5108 6.46383 90.21 6.46383C88.9293 6.46383 87.7686 7.4244 87.7686 9.20546C87.7686 10.9865 88.9293 11.9871 90.21 11.9871C91.5108 11.9871 92.6515 11.0065 92.6515 9.22547ZM110.955 0.600344C114.317 0.600344 116.758 2.32137 117.499 5.20308H113.717C113.196 4.26252 112.236 3.76222 110.955 3.76222C108.754 3.76222 107.293 5.32315 107.293 7.7646C107.293 10.3662 108.774 11.8871 111.235 11.8871C112.936 11.8871 114.117 10.9865 114.637 9.40558H110.294V6.88408H117.739V10.066C117.018 12.4874 114.677 14.9089 110.975 14.9089C106.772 14.9089 103.811 11.9671 103.811 7.7646C103.811 3.5621 106.752 0.600344 110.955 0.600344ZM119.754 9.20546C119.754 5.68337 121.936 3.48206 124.677 3.48206C126.338 3.48206 127.519 4.24251 128.119 5.22309V3.64215H131.541V14.8088H128.119V13.2279C127.499 14.2084 126.318 14.9689 124.657 14.9689C121.936 14.9689 119.754 12.7276 119.754 9.20546ZM128.119 9.22547C128.119 7.44441 126.979 6.46383 125.678 6.46383C124.397 6.46383 123.237 7.4244 123.237 9.20546C123.237 10.9865 124.397 11.9871 125.678 11.9871C126.979 11.9871 128.119 11.0065 128.119 9.22547ZM150.207 14.8088V8.74519C150.207 7.28432 149.366 6.48384 148.066 6.48384C146.765 6.48384 145.924 7.28432 145.924 8.74519V14.8088H142.522V8.74519C142.522 7.28432 141.682 6.48384 140.381 6.48384C139.08 6.48384 138.24 7.28432 138.24 8.74519V14.8088H134.818V3.64215H138.24V5.04299C138.9 4.14245 140.041 3.52208 141.502 3.52208C143.183 3.52208 144.543 4.26252 145.304 5.60332C146.044 4.42262 147.445 3.52208 149.066 3.52208C151.828 3.52208 153.609 5.28313 153.609 8.28491V14.8088H150.207ZM161.726 6.22369C160.605 6.22369 159.744 6.90409 159.544 8.14483H163.827C163.827 6.9241 162.866 6.22369 161.726 6.22369ZM167.069 11.1066C166.528 13.2879 164.547 14.9689 161.766 14.9689C158.484 14.9689 156.122 12.7676 156.122 9.22547C156.122 5.68337 158.444 3.48206 161.766 3.48206C165.027 3.48206 167.329 5.64334 167.329 9.04536C167.329 9.36556 167.309 9.70576 167.269 10.046H159.524C159.644 11.5068 160.545 12.1872 161.645 12.1872C162.606 12.1872 163.146 11.7069 163.427 11.1066H167.069ZM179 11.5669C179 13.508 177.279 14.9689 174.477 14.9689C171.496 14.9689 169.494 13.3079 169.334 11.1466H172.716C172.796 11.9271 173.497 12.4474 174.437 12.4474C175.318 12.4474 175.778 12.0471 175.778 11.5469C175.778 9.74578 169.694 11.0466 169.694 6.94412C169.694 5.04299 171.315 3.48206 174.237 3.48206C177.119 3.48206 178.72 5.08301 178.94 7.28432H175.778C175.678 6.52387 175.098 6.02357 174.137 6.02357C173.337 6.02357 172.896 6.34376 172.896 6.88408C172.896 8.66514 178.94 7.40439 179 11.5669Z" fill="#EAE6F5"/>
</svg>
