<svg width="79" height="34" viewBox="0 0 79 34" fill="none" xmlns="http://www.w3.org/2000/svg">
<rect width="79" height="34" rx="6" fill="#332E42"/>
<path d="M19.056 20.348L21.684 13.136H22.836L19.68 21.5H18.42L15.264 13.136H16.428L19.056 20.348ZM24.5134 21.5V14.924H25.6054V21.5H24.5134ZM25.0774 13.856C24.6574 13.856 24.3334 13.532 24.3334 13.112C24.3334 12.692 24.6574 12.368 25.0774 12.368C25.4734 12.368 25.7974 12.692 25.7974 13.112C25.7974 13.532 25.4734 13.856 25.0774 13.856ZM30.7425 15.74C29.6745 15.74 28.7865 16.448 28.6665 17.732H32.8185C32.8305 16.448 31.8705 15.74 30.7425 15.74ZM33.8145 19.472C33.4785 20.672 32.4225 21.608 30.7905 21.608C28.9185 21.608 27.5385 20.288 27.5385 18.2C27.5385 16.124 28.8705 14.816 30.7905 14.816C32.6985 14.816 33.9465 16.16 33.9465 17.96C33.9465 18.2 33.9345 18.392 33.9105 18.62H28.6545C28.7385 19.952 29.6745 20.684 30.7905 20.684C31.7745 20.684 32.3985 20.18 32.6385 19.472H33.8145ZM37.1519 21.5L35.0879 14.924H36.2039L37.7159 20.444L39.3479 14.924H40.4639L42.0599 20.456L43.5479 14.924H44.6279L42.5759 21.5H41.4479L39.8639 16.28L38.2799 21.5H37.1519ZM55.4869 21.5L54.8149 19.64H51.1669L50.4949 21.5H49.3429L52.3669 13.184H53.6269L56.6389 21.5H55.4869ZM54.5029 18.752L52.9909 14.528L51.4789 18.752H54.5029ZM58.4368 21.5V12.62H59.5288V21.5H58.4368ZM61.8699 21.5V12.62H62.9619V21.5H61.8699Z" fill="#EAE6F5"/>
</svg>
