<svg width="49" height="18" viewBox="0 0 49 18" fill="none" xmlns="http://www.w3.org/2000/svg">
<path d="M4.056 11.848L6.684 4.636H7.836L4.68 13H3.42L0.264 4.636H1.428L4.056 11.848ZM9.51337 13V6.424H10.6054V13H9.51337ZM10.0774 5.356C9.65737 5.356 9.33337 5.032 9.33337 4.612C9.33337 4.192 9.65737 3.868 10.0774 3.868C10.4734 3.868 10.7974 4.192 10.7974 4.612C10.7974 5.032 10.4734 5.356 10.0774 5.356ZM15.7425 7.24C14.6745 7.24 13.7865 7.948 13.6665 9.232H17.8185C17.8305 7.948 16.8705 7.24 15.7425 7.24ZM18.8145 10.972C18.4785 12.172 17.4225 13.108 15.7905 13.108C13.9185 13.108 12.5385 11.788 12.5385 9.7C12.5385 7.624 13.8705 6.316 15.7905 6.316C17.6985 6.316 18.9465 7.66 18.9465 9.46C18.9465 9.7 18.9345 9.892 18.9105 10.12H13.6545C13.7385 11.452 14.6745 12.184 15.7905 12.184C16.7745 12.184 17.3985 11.68 17.6385 10.972H18.8145ZM22.1519 13L20.0879 6.424H21.2039L22.7159 11.944L24.3479 6.424H25.4639L27.0599 11.956L28.5479 6.424H29.6279L27.5759 13H26.4479L24.8639 7.78L23.2799 13H22.1519ZM40.4869 13L39.8149 11.14H36.1669L35.4949 13H34.3429L37.3669 4.684H38.6269L41.6389 13H40.4869ZM39.5029 10.252L37.9909 6.028L36.4789 10.252H39.5029ZM43.4368 13V4.12H44.5288V13H43.4368ZM46.8699 13V4.12H47.9619V13H46.8699Z" fill="#EAE6F5"/>
</svg>
